# xmcd
#
# Track frame offsets:
#	150
#	26576
#	53134
#	72318
#	91433
#	107656
#	123092
#	139463
#	155329
#	175087
#
# Disc length: 2541 seconds
#
# Revision: 7
# Processed by: cddbd v1.5.2PL0 Copyright (c) Steve Scherf et al.
# Submitted via: EZCDAudioConverter 2.4.0.1
#
DISCID=8309eb0a
DTITLE=Leonardo - Leonardo Ao Vivo - CD2
DYEAR=1999
DGENRE=Sertanejo
TTITLE0=Eu Juro
TTITLE1=Mano
TTITLE2=Deu medo
TTITLE3=Desculpe, Mas Eu Vou Chorar
TTITLE4=Não Aprendi A Dizer Adeus
TTITLE5=Índia
TTITLE6=Pense Em Mim
TTITLE7=Cerveja
TTITLE8=Festa De Rodeio
TTITLE9=Cumade E Cumpade
EXTD=
EXTT0=
EXTT1=
EXTT2=
EXTT3=
EXTT4=
EXTT5=
EXTT6=
EXTT7=
EXTT8=
EXTT9=
PLAYORDER=
